<svg width="15" height="15" viewBox="0 0 15 15" fill="none" xmlns="http://www.w3.org/2000/svg">
<path id="Icon" d="M4.30315 5.91725L2.58407 7.63633C1.94204 8.27835 1.57283 9.15193 1.57958 10.07C1.58633 10.9881 1.94746 11.867 2.61995 12.5188C3.27164 13.1913 4.15073 13.5524 5.06868 13.5591C6.00757 13.566 6.86047 13.2176 7.50254 12.5756L9.22161 10.8565M11.4174 8.70271L13.1365 6.98364C13.7785 6.34161 14.1477 5.46803 14.141 4.54993C14.1342 3.63183 13.7731 2.75293 13.1006 2.1012C12.4491 1.44967 11.5701 1.08852 10.652 1.08177C9.73392 1.07503 8.86023 1.42328 8.21817 2.06532L6.49909 3.7844M5.2534 9.87088L10.4106 4.71365" stroke="white" stroke-width="1.26801" stroke-linecap="round" stroke-linejoin="round"/>
</svg>
