<svg width="12" height="12" viewBox="0 0 12 12" fill="none" xmlns="http://www.w3.org/2000/svg">
<path id="Icon" d="M4.5743 2.36847L5.13753 1.57929C5.25308 1.41739 5.43973 1.32129 5.63864 1.32129H6.36211C6.56026 1.32129 6.7463 1.41667 6.86198 1.57755L7.41888 2.35215M4.5743 2.36847C4.40913 2.59822 4.13458 2.7108 3.84318 2.69073M4.5743 2.36847C4.40832 2.59767 4.13458 2.71173 3.84318 2.69073M3.84318 2.69073L2.83806 2.6292C2.64354 2.6173 2.45488 2.69819 2.3294 2.84729L1.88789 3.37193C1.74997 3.53582 1.70715 3.75963 1.77483 3.96286L2.05864 4.81506M2.05864 4.81506C2.10099 4.94893 2.10641 5.09234 2.0761 5.22779M2.05864 4.81506C2.10159 4.94869 2.10681 5.09182 2.0759 5.22918M2.0761 5.22779C2.0454 5.36164 1.97957 5.48802 1.88183 5.59036M2.0761 5.22779L2.0759 5.22918M1.88183 5.59036L1.23329 6.27044C1.088 6.4228 1.03063 6.63885 1.08122 6.84322L1.23211 7.45287C1.28167 7.65315 1.42827 7.81528 1.62255 7.8847L2.52304 8.20649C2.65871 8.25768 2.77591 8.34088 2.86461 8.44569M1.88183 5.59036C1.98017 5.48886 2.0454 5.36288 2.0759 5.22918M2.86461 8.44569C2.95272 8.5508 3.01272 8.67766 3.036 8.81502M2.86461 8.44569C2.95352 8.5508 3.01373 8.67733 3.036 8.81502M2.86461 8.44569L2.86321 8.44418C2.85739 8.43731 2.85117 8.43014 2.84515 8.42346M3.036 8.81502L3.18801 9.72542C3.22182 9.92791 3.35434 10.1002 3.54136 10.1849L4.1875 10.4774C4.36347 10.557 4.56662 10.5495 4.7362 10.457L5.59059 9.99093M5.59059 9.99093C5.71683 9.92179 5.85771 9.88713 5.99859 9.88696M5.59059 9.99093C5.64056 9.9632 5.69294 9.94108 5.74673 9.92447C5.82841 9.89924 5.9135 9.8868 5.99859 9.88696M5.99859 9.88696C6.07185 9.88711 6.1451 9.89656 6.21654 9.91522C6.28297 9.93256 6.3476 9.95785 6.40881 9.99093M5.99859 9.88696C6.14008 9.88677 6.28177 9.92144 6.40881 9.99093M6.40881 9.99093L7.30578 10.4644C7.47603 10.5542 7.67852 10.5593 7.85304 10.478L8.49593 10.1786C8.68242 10.0918 8.81321 9.91753 8.84451 9.71421L8.98025 8.83249M8.98025 8.83249C9.00253 8.69436 9.06173 8.56654 9.14963 8.46052M8.98025 8.83249C9.00173 8.69405 9.06133 8.56642 9.14963 8.46052M9.14963 8.46052C9.23694 8.35557 9.35273 8.27196 9.4876 8.22027M9.14963 8.46052C9.23673 8.35517 9.35213 8.27132 9.4876 8.22027M9.4876 8.22027L10.3992 7.87192C10.5901 7.79899 10.7323 7.63616 10.7789 7.43725L10.9243 6.81642C10.9716 6.61481 10.9143 6.40296 10.7719 6.25263L10.1178 5.56206M10.1178 5.56206C10.0182 5.45936 9.94878 5.33669 9.91507 5.20631M10.1178 5.56206C10.071 5.51409 10.0309 5.46166 9.99815 5.40606C9.96083 5.34293 9.93293 5.27573 9.91507 5.20631M9.91507 5.20631C9.88195 5.07686 9.88396 4.93969 9.92591 4.80692L10.2067 3.92945C10.2712 3.72769 10.2275 3.5069 10.091 3.34495L9.66269 2.83707C9.53578 2.68657 9.34455 2.60584 9.14818 2.61987L8.15602 2.69073M8.15602 2.69073C8.01112 2.7007 7.86863 2.67379 7.74179 2.6159M8.15602 2.69073C8.01092 2.70128 7.86863 2.67415 7.74179 2.6159M7.74179 2.6159C7.61415 2.55726 7.50217 2.4671 7.41888 2.35215M7.74179 2.6159C7.61395 2.55748 7.50177 2.46755 7.41888 2.35215M2.0759 5.22918L2.0763 5.22715M7.61235 5.96907C7.61235 6.83495 6.87621 7.53685 5.96829 7.53685C5.06037 7.53685 4.32424 6.83495 4.32424 5.96907C4.32424 5.1032 5.06037 4.4013 5.96829 4.4013C6.87621 4.4013 7.61235 5.1032 7.61235 5.96907Z" stroke="#ABABAB" stroke-width="1.07143"/>
</svg>
