<svg width="21" height="21" viewBox="0 0 21 21" fill="none" xmlns="http://www.w3.org/2000/svg">
<path d="M1.66967 17.8697C1.37678 18.1626 1.37678 18.6374 1.66967 18.9303C1.96256 19.2232 2.43744 19.2232 2.73033 18.9303L1.66967 17.8697ZM7 13.6L7.53033 13.0697C7.23744 12.7768 6.76256 12.7768 6.46967 13.0697L7 13.6ZM9.4 16L8.86967 16.5303C9.16256 16.8232 9.63744 16.8232 9.93033 16.5303L9.4 16ZM14.8 10.6L15.3303 10.0697C15.0374 9.77678 14.5626 9.77678 14.2697 10.0697L14.8 10.6ZM19.0697 15.9303C19.3626 16.2232 19.8374 16.2232 20.1303 15.9303C20.4232 15.6374 20.4232 15.1626 20.1303 14.8697L19.0697 15.9303ZM2.73033 18.9303L7.53033 14.1303L6.46967 13.0697L1.66967 17.8697L2.73033 18.9303ZM6.46967 14.1303L8.86967 16.5303L9.93033 15.4697L7.53033 13.0697L6.46967 14.1303ZM9.93033 16.5303L15.3303 11.1303L14.2697 10.0697L8.86967 15.4697L9.93033 16.5303ZM14.2697 11.1303L19.0697 15.9303L20.1303 14.8697L15.3303 10.0697L14.2697 11.1303ZM4.6 1.75H16.6V0.25H4.6V1.75ZM19.45 4.6V16.6H20.95V4.6H19.45ZM16.6 19.45H4.6V20.95H16.6V19.45ZM1.75 16.6V4.6H0.25V16.6H1.75ZM4.6 19.45C3.02599 19.45 1.75 18.174 1.75 16.6H0.25C0.25 19.0024 2.19756 20.95 4.6 20.95V19.45ZM19.45 16.6C19.45 18.174 18.174 19.45 16.6 19.45V20.95C19.0024 20.95 20.95 19.0024 20.95 16.6H19.45ZM16.6 1.75C18.174 1.75 19.45 3.02599 19.45 4.6H20.95C20.95 2.19756 19.0024 0.25 16.6 0.25V1.75ZM4.6 0.25C2.19756 0.25 0.25 2.19756 0.25 4.6H1.75C1.75 3.02599 3.02599 1.75 4.6 1.75V0.25ZM7.45 6.4C7.45 6.9799 6.9799 7.45 6.4 7.45V8.95C7.80833 8.95 8.95 7.80833 8.95 6.4H7.45ZM6.4 7.45C5.8201 7.45 5.35 6.9799 5.35 6.4H3.85C3.85 7.80833 4.99167 8.95 6.4 8.95V7.45ZM5.35 6.4C5.35 5.8201 5.8201 5.35 6.4 5.35V3.85C4.99167 3.85 3.85 4.99167 3.85 6.4H5.35ZM6.4 5.35C6.9799 5.35 7.45 5.8201 7.45 6.4H8.95C8.95 4.99167 7.80833 3.85 6.4 3.85V5.35Z" fill="#CDCDCD"/>
</svg>
