<svg width="96" height="26" viewBox="0 0 96 26" fill="none" xmlns="http://www.w3.org/2000/svg">
<g id="Group 633207" opacity="0.9">
<g id="ARCBOX">
<path d="M33.0719 15.0179H33.6761H34.1796C34.1125 12.4252 34.0454 9.73136 33.9111 7.37428C33.8775 6.7345 33.8104 5.21924 33.7768 3.97336H33.609C33.5419 5.18557 33.4747 6.70083 33.4076 7.37428C33.2733 9.76503 33.1391 12.4588 33.0719 15.0179ZM39.5838 25.5238H34.1796C34.2132 24.7493 34.2468 23.234 34.2468 21.3484H33.6426H32.9377C32.9377 23.133 32.9377 24.6146 32.9377 25.5238H28.1377C28.6748 19.0923 29.5139 3.40092 29.581 0.269379H38.0062C38.1405 3.50194 39.0132 19.025 39.5838 25.5238Z" fill="#272727"/>
<path d="M44.6167 12.4925H44.8516C45.6572 12.4925 45.7915 12.0884 45.7915 9.1926C45.7915 6.46512 45.5901 6.09472 44.9859 6.09472H44.5831C44.5831 8.28344 44.5831 10.4048 44.6167 12.4925ZM47.7383 15.523V15.7251C49.618 16.0281 50.3565 16.9709 50.5579 19.8668C50.6586 21.5841 50.7593 24.1432 50.86 25.5238H46.5299C45.9929 25.5238 45.8251 25.2881 45.8251 24.6146C45.7579 17.9138 45.5901 17.4424 44.8852 17.4424H44.6502C44.6838 20.6413 44.7509 23.4361 44.8516 25.5238H39.8502C39.8838 21.8871 39.8838 18.2842 39.8838 12.8966C39.8838 7.54264 39.8838 3.90601 39.8502 0.269379H45.6237C49.316 0.269379 50.6586 1.31323 50.6586 7.67733C50.6586 13.4353 49.9201 15.119 47.7383 15.523Z" fill="#272727"/>
<path d="M59.244 12.9639H61.6943C61.7279 14.1761 61.7615 15.2873 61.7615 18.0148C61.7615 24.0422 60.2845 25.7931 56.5251 25.7931C52.3964 25.7931 51.1545 23.234 51.1545 12.2231C51.1545 1.81831 52.5978 0 56.5922 0C60.0831 0 61.795 1.11119 61.795 7.34061C61.795 9.69768 61.7615 10.8089 61.6943 12.0548C60.8552 12.0211 60.0496 12.0211 59.244 12.0211C58.5055 12.0211 57.7335 12.0211 56.995 12.0548C57.0622 10.3375 57.0957 9.09158 57.0957 8.14875C57.0957 6.63348 56.9615 6.16207 56.6258 6.16207C56.223 6.16207 56.0887 6.4988 56.0887 12.2231C56.0887 18.1832 56.223 18.5872 56.6594 18.5872C56.9615 18.5872 57.0957 17.9138 57.0957 16.3648C57.0957 15.3547 57.0622 14.1761 56.995 12.9639H59.244Z" fill="#272727"/>
<path d="M67.4016 10.8762H67.6366C68.2408 10.8425 68.5429 10.3375 68.5429 7.74468C68.5429 5.48862 68.2408 5.18557 67.7373 5.18557C67.6366 5.18557 67.5359 5.18557 67.4016 5.18557C67.4016 6.80185 67.4016 8.88954 67.4016 10.8762ZM67.8044 14.4455H67.4016C67.4016 16.2975 67.4016 18.3852 67.4352 20.2035C67.5695 20.2035 67.6702 20.2035 67.7709 20.2035C68.3415 20.2035 68.5429 19.7658 68.5429 17.4087C68.5429 14.8833 68.3079 14.4455 67.8044 14.4455ZM70.624 12.8629V13.0649C71.1275 13.0986 71.5639 13.166 71.8995 13.368C73.0744 14.0751 73.41 16.2975 73.41 18.8566C73.41 24.0085 72.638 25.5238 68.8114 25.5238H62.4674C62.5345 21.9208 62.5345 18.2842 62.5345 12.8966C62.5345 7.54264 62.5345 3.90601 62.4674 0.269379H68.6436C71.631 0.269379 73.3429 1.31323 73.3429 6.36411C73.3429 10.6742 73.0072 11.5833 71.8995 12.3915C71.5639 12.6272 71.1275 12.7619 70.624 12.8629Z" fill="#272727"/>
<path d="M84.7814 12.2231C84.7814 22.8973 83.4723 25.7931 79.2765 25.7931C75.0136 25.7931 73.7716 22.8973 73.7716 12.2231C73.7716 2.05402 75.4164 0 79.243 0C83.1031 0 84.7814 2.05402 84.7814 12.2231ZM79.243 18.5872C79.7129 18.5872 79.8136 18.1832 79.8136 12.0211C79.8136 6.63348 79.7129 6.26309 79.243 6.26309C78.8066 6.26309 78.7059 6.63348 78.7059 12.0211C78.7059 18.1832 78.8066 18.5872 79.243 18.5872Z" fill="#272727"/>
<path d="M91.1663 0.269379H95.9999C95.3957 3.60296 94.9258 8.28344 94.3216 12.9976C94.9258 17.7117 95.3957 22.1228 95.9999 25.5238H90.5957C90.5622 24.1432 90.3943 22.5606 90.3272 20.9443C90.1929 19.3954 90.0922 17.173 90.0251 15.0516H89.9244C89.7901 17.173 89.6559 19.3617 89.5552 20.978C89.4545 22.5943 89.3538 24.1095 89.2866 25.5238H84.4531C85.0237 22.1228 85.4936 17.4424 86.1314 12.7282C85.4936 8.04773 85.0237 3.60296 84.4531 0.269379H89.8237C89.8908 1.81831 89.9915 3.50194 90.1258 5.28658C90.2265 6.76817 90.3272 8.92322 90.4279 10.9772H90.495C90.6293 8.92322 90.7971 6.76817 90.8978 5.28658C91.0321 3.4346 91.0992 1.81831 91.1663 0.269379Z" fill="#272727"/>
</g>
<g id="Group 633203">
<path id="Subtract" fill-rule="evenodd" clip-rule="evenodd" d="M13.4214 0.679741C12.2878 0.00536084 11.3689 0.527907 11.3689 1.84688V4.59233L15.8746 7.2729C17.0081 7.94728 17.927 9.56321 17.927 10.8822V16.7163L20.7947 18.4224C21.9282 19.0968 22.8471 18.5742 22.8471 17.2552V8.67569C22.8471 7.35672 21.9282 5.74079 20.7947 5.06641L13.4214 0.679741Z" fill="#272727"/>
<rect id="Rectangle 794" width="13.356" height="13.356" rx="2.38821" transform="matrix(0.859406 0.511293 0 1 0 5.22833)" fill="#272727"/>
<path id="Subtract_2" fill-rule="evenodd" clip-rule="evenodd" d="M7.48235 3.39404C6.34881 2.71966 5.42991 3.24221 5.42991 4.56118V7.34304L10.4447 10.3265C11.5782 11.0009 12.4971 12.6168 12.4971 13.9358V19.7335L14.8557 21.1367C15.9892 21.8111 16.9081 21.2885 16.9081 19.9695V11.39C16.9081 10.071 15.9892 8.45509 14.8557 7.78071L7.48235 3.39404Z" fill="#272727"/>
</g>
</g>
</svg>
