<svg width="65" height="25" viewBox="0 0 65 25" fill="none" xmlns="http://www.w3.org/2000/svg">
<path d="M5.20083 14.1991H5.76762H6.23994C6.17697 11.7746 6.11399 9.25552 5.98804 7.05135C5.95655 6.45307 5.89357 5.03611 5.86208 3.87105H5.70464C5.64167 5.00462 5.57869 6.42159 5.51571 7.05135C5.38976 9.287 5.26381 11.8061 5.20083 14.1991ZM11.3095 24.0234H6.23994C6.27143 23.2992 6.30292 21.8822 6.30292 20.1189H5.73613H5.07488C5.07488 21.7878 5.07488 23.1733 5.07488 24.0234H0.572083C1.07589 18.0092 1.86309 3.33575 1.92607 0.407358H9.82959C9.95554 3.43022 10.7742 17.9462 11.3095 24.0234ZM16.0308 11.8375H16.2512C17.0069 11.8375 17.1329 11.4597 17.1329 8.75171C17.1329 6.20117 16.9439 5.8548 16.3771 5.8548H15.9993C15.9993 7.90153 15.9993 9.88528 16.0308 11.8375ZM18.9592 14.6715V14.8604C20.7225 15.1438 21.4152 16.0255 21.6042 18.7334C21.6986 20.3393 21.7931 22.7324 21.8876 24.0234H17.8256C17.3218 24.0234 17.1643 23.803 17.1643 23.1733C17.1014 16.9071 16.9439 16.4663 16.2827 16.4663H16.0623C16.0938 19.4577 16.1567 22.0712 16.2512 24.0234H11.5595C11.591 20.6227 11.591 17.2535 11.591 12.2154C11.591 7.20879 11.591 3.80807 11.5595 0.407358H16.9754C20.4391 0.407358 21.6986 1.38349 21.6986 7.33474C21.6986 12.7192 21.0059 14.2936 18.9592 14.6715ZM29.7525 12.2784H32.0511C32.0826 13.4119 32.1141 14.4511 32.1141 17.0016C32.1141 22.638 30.7286 24.2753 27.2019 24.2753C23.3289 24.2753 22.1638 21.8822 22.1638 11.5856C22.1638 1.85581 23.5178 0.155454 27.2649 0.155454C30.5397 0.155454 32.1455 1.19456 32.1455 7.01986C32.1455 9.22403 32.1141 10.2631 32.0511 11.4282C31.2639 11.3967 30.5082 11.3967 29.7525 11.3967C29.0597 11.3967 28.3355 11.3967 27.6428 11.4282C27.7057 9.8223 27.7372 8.65724 27.7372 7.77557C27.7372 6.35861 27.6113 5.91778 27.2964 5.91778C26.9185 5.91778 26.7926 6.23266 26.7926 11.5856C26.7926 17.159 26.9185 17.5369 27.3279 17.5369C27.6113 17.5369 27.7372 16.9071 27.7372 15.4587C27.7372 14.514 27.7057 13.4119 27.6428 12.2784H29.7525ZM37.405 10.3261H37.6255C38.1922 10.2946 38.4756 9.8223 38.4756 7.39772C38.4756 5.28801 38.1922 5.00462 37.7199 5.00462C37.6255 5.00462 37.531 5.00462 37.405 5.00462C37.405 6.51605 37.405 8.46831 37.405 10.3261ZM37.7829 13.6639H37.405C37.405 15.3957 37.405 17.348 37.4365 19.0483C37.5625 19.0483 37.657 19.0483 37.7514 19.0483C38.2867 19.0483 38.4756 18.639 38.4756 16.4348C38.4756 14.0732 38.2552 13.6639 37.7829 13.6639ZM40.4279 12.1839V12.3728C40.9002 12.4043 41.3096 12.4673 41.6245 12.6562C42.7265 13.3175 43.0414 15.3957 43.0414 17.7888C43.0414 22.6065 42.3172 24.0234 38.7275 24.0234H32.7763C32.8393 20.6542 32.8393 17.2535 32.8393 12.2154C32.8393 7.20879 32.8393 3.80807 32.7763 0.407358H38.5701C41.3725 0.407358 42.9784 1.38349 42.9784 6.10671C42.9784 10.1372 42.6636 10.9874 41.6245 11.7431C41.3096 11.9635 40.9002 12.0894 40.4279 12.1839ZM53.7088 11.5856C53.7088 21.5674 52.4807 24.2753 48.5447 24.2753C44.5457 24.2753 43.3807 21.5674 43.3807 11.5856C43.3807 2.07623 44.9236 0.155454 48.5132 0.155454C52.1343 0.155454 53.7088 2.07623 53.7088 11.5856ZM48.5132 17.5369C48.954 17.5369 49.0485 17.159 49.0485 11.3967C49.0485 6.35861 48.954 6.01224 48.5132 6.01224C48.1039 6.01224 48.0094 6.35861 48.0094 11.3967C48.0094 17.159 48.1039 17.5369 48.5132 17.5369ZM59.6984 0.407358H64.2327C63.6659 3.52468 63.225 7.90153 62.6583 12.3099C63.225 16.7182 63.6659 20.8431 64.2327 24.0234H59.1631C59.1316 22.7324 58.9742 21.2525 58.9112 19.7411C58.7852 18.2926 58.6908 16.2144 58.6278 14.2306H58.5333C58.4074 16.2144 58.2814 18.2611 58.1869 19.7725C58.0925 21.284 57.998 22.7009 57.935 24.0234H53.4008C53.9361 20.8431 54.3769 16.4663 54.9752 12.058C54.3769 7.68111 53.9361 3.52468 53.4008 0.407358H58.4389C58.5018 1.85581 58.5963 3.43022 58.7222 5.09909C58.8167 6.48456 58.9112 8.4998 59.0056 10.4206H59.0686C59.1946 8.4998 59.352 6.48456 59.4465 5.09909C59.5724 3.36724 59.6354 1.85581 59.6984 0.407358Z" fill="white"/>
</svg>
