<svg width="4204" height="1133" viewBox="0 0 4204 1133" fill="none" xmlns="http://www.w3.org/2000/svg">
<g opacity="0.9" filter="url(#filter0_d_1109_19118)">
<path d="M1509.92 664.302H1535.74H1557.26C1554.39 553.498 1551.52 438.377 1545.78 337.645C1544.35 310.304 1541.48 245.548 1540.05 192.305H1532.87C1530.01 244.109 1527.14 308.865 1524.27 337.645C1518.53 439.816 1512.79 554.937 1509.92 664.302ZM1788.21 1113.28H1557.26C1558.7 1080.18 1560.13 1015.42 1560.13 934.837H1534.31H1504.19C1504.19 1011.1 1504.19 1074.42 1504.19 1113.28H1299.05C1322.01 838.423 1357.87 167.842 1360.74 34.013H1720.79C1726.53 172.159 1763.83 835.545 1788.21 1113.28Z" fill="white"/>
<path d="M2003.29 556.376H2013.34C2047.76 556.376 2053.5 539.108 2053.5 415.352C2053.5 298.792 2044.89 282.963 2019.07 282.963H2001.86C2001.86 376.499 2001.86 467.157 2003.29 556.376ZM2136.7 685.887V694.521C2217.03 707.473 2248.59 747.765 2257.2 871.521C2261.5 944.91 2265.8 1054.28 2270.11 1113.28H2085.06C2062.11 1113.28 2054.94 1103.2 2054.94 1074.42C2052.07 788.058 2044.89 767.911 2014.77 767.911H2004.73C2006.16 904.618 2009.03 1024.06 2013.34 1113.28H1799.6C1801.03 957.861 1801.03 803.887 1801.03 573.644C1801.03 344.84 1801.03 189.427 1799.6 34.013H2046.33C2204.12 34.013 2261.5 78.6226 2261.5 350.597C2261.5 596.668 2229.94 668.619 2136.7 685.887Z" fill="white"/>
<path d="M2628.4 576.522H2733.12C2734.55 628.327 2735.99 675.814 2735.99 792.375C2735.99 1049.96 2672.87 1124.79 2512.21 1124.79C2335.77 1124.79 2282.69 1015.42 2282.69 544.864C2282.69 100.208 2344.37 22.501 2515.08 22.501C2664.26 22.501 2737.42 69.9885 2737.42 336.206C2737.42 436.938 2735.99 484.425 2733.12 537.669C2697.26 536.23 2662.83 536.23 2628.4 536.23C2596.84 536.23 2563.85 536.23 2532.29 537.669C2535.16 464.279 2536.59 411.035 2536.59 370.743C2536.59 305.987 2530.86 285.841 2516.51 285.841C2499.3 285.841 2493.56 300.231 2493.56 544.864C2493.56 799.57 2499.3 816.838 2517.95 816.838C2530.86 816.838 2536.59 788.057 2536.59 721.863C2536.59 678.692 2535.16 628.327 2532.29 576.522H2628.4Z" fill="white"/>
<path d="M2977.02 487.303H2987.07C3012.89 485.864 3025.8 464.279 3025.8 353.475C3025.8 257.061 3012.89 244.109 2991.37 244.109C2987.07 244.109 2982.76 244.109 2977.02 244.109C2977.02 313.182 2977.02 402.401 2977.02 487.303ZM2994.24 639.839H2977.02C2977.02 718.985 2977.02 808.204 2978.46 885.911C2984.2 885.911 2988.5 885.911 2992.8 885.911C3017.19 885.911 3025.8 867.203 3025.8 766.472C3025.8 658.546 3015.76 639.839 2994.24 639.839ZM3114.73 572.205V580.839C3136.25 582.278 3154.9 585.156 3169.24 593.79C3219.45 624.01 3233.8 718.985 3233.8 828.35C3233.8 1048.52 3200.8 1113.28 3037.27 1113.28H2766.16C2769.03 959.3 2769.03 803.887 2769.03 573.644C2769.03 344.84 2769.03 189.427 2766.16 34.013H3030.1C3157.77 34.013 3230.93 78.6226 3230.93 294.475C3230.93 478.669 3216.58 517.522 3169.24 552.059C3154.9 562.132 3136.25 567.888 3114.73 572.205Z" fill="white"/>
<path d="M3719.76 544.864C3719.76 1001.03 3663.81 1124.79 3484.5 1124.79C3302.33 1124.79 3249.25 1001.03 3249.25 544.864C3249.25 110.281 3319.54 22.501 3483.07 22.501C3648.04 22.501 3719.76 110.281 3719.76 544.864ZM3483.07 816.838C3503.15 816.838 3507.46 799.57 3507.46 536.23C3507.46 305.987 3503.15 290.158 3483.07 290.158C3464.42 290.158 3460.12 305.987 3460.12 536.23C3460.12 799.57 3464.42 816.838 3483.07 816.838Z" fill="white"/>
<path d="M3992.62 34.013H4199.19C4173.37 176.476 4153.29 376.499 4127.46 577.961C4153.29 779.423 4173.37 967.934 4199.19 1113.28H3968.24C3966.8 1054.28 3959.63 986.642 3956.76 917.569C3951.02 851.374 3946.72 756.399 3943.85 665.741H3939.55C3933.81 756.399 3928.07 849.935 3923.77 919.008C3919.47 988.081 3915.16 1052.84 3912.29 1113.28H3705.73C3730.11 967.934 3750.2 767.911 3777.45 566.449C3750.2 366.426 3730.11 176.476 3705.73 34.013H3935.24C3938.11 100.208 3942.42 172.159 3948.16 248.426C3952.46 311.743 3956.76 403.84 3961.07 491.62H3963.93C3969.67 403.84 3976.84 311.743 3981.15 248.426C3986.89 169.281 3989.75 100.208 3992.62 34.013Z" fill="white"/>
<path fill-rule="evenodd" clip-rule="evenodd" d="M552.343 9.24025C517.924 -11.2372 490.021 4.62979 490.021 44.68V191.553L707.959 321.213C742.379 341.69 770.281 390.757 770.281 430.808V709.676L918.228 797.695C952.647 818.172 980.55 802.305 980.55 762.255V336.514C980.55 296.464 952.647 247.396 918.228 226.919L552.343 9.24025Z" fill="white"/>
<rect width="570.776" height="570.776" rx="72.5174" transform="matrix(0.859406 0.511293 0 1 4.16504 218.73)" fill="white"/>
<path fill-rule="evenodd" clip-rule="evenodd" d="M298.538 125.23C264.118 104.752 236.216 120.619 236.216 160.669V309.106L475.909 451.709C510.328 472.186 538.231 521.254 538.231 561.304V838.608L664.422 913.684C698.842 934.161 726.744 918.294 726.744 878.244V452.503C726.744 412.453 698.842 363.385 664.422 342.908L298.538 125.23Z" fill="white"/>
</g>
<defs>
<filter id="filter0_d_1109_19118" x="0.165039" y="0.293945" width="4203.02" height="1132.49" filterUnits="userSpaceOnUse" color-interpolation-filters="sRGB">
<feFlood flood-opacity="0" result="BackgroundImageFix"/>
<feColorMatrix in="SourceAlpha" type="matrix" values="0 0 0 0 0 0 0 0 0 0 0 0 0 0 0 0 0 0 127 0" result="hardAlpha"/>
<feOffset dy="4"/>
<feGaussianBlur stdDeviation="2"/>
<feComposite in2="hardAlpha" operator="out"/>
<feColorMatrix type="matrix" values="0 0 0 0 0 0 0 0 0 0 0 0 0 0 0 0 0 0 0.25 0"/>
<feBlend mode="normal" in2="BackgroundImageFix" result="effect1_dropShadow_1109_19118"/>
<feBlend mode="normal" in="SourceGraphic" in2="effect1_dropShadow_1109_19118" result="shape"/>
</filter>
</defs>
</svg>
