<svg width="1441" height="1024" viewBox="0 0 1441 1024" fill="none" xmlns="http://www.w3.org/2000/svg">
<g clip-path="url(#clip0_976_6718)">
<g opacity="0.2">
<path d="M-186.035 23.0117H1727.04" stroke="#CDCDCD" stroke-width="1.25"/>
<path d="M-186.035 571.098H1727.04" stroke="#CDCDCD" stroke-width="1.25"/>
<path d="M-186.035 297.055H1727.04" stroke="#CDCDCD" stroke-width="1.25"/>
<path d="M-186.035 846.186H1727.04" stroke="#CDCDCD" stroke-width="1.25"/>
<path d="M-186.035 46.0234H1727.04" stroke="#CDCDCD" stroke-width="1.25"/>
<path d="M-186.035 594.107H1727.04" stroke="#CDCDCD" stroke-width="1.25"/>
<path d="M-186.035 320.064H1727.04" stroke="#CDCDCD" stroke-width="1.25"/>
<path d="M-186.035 868.15H1727.04" stroke="#CDCDCD" stroke-width="1.25"/>
<path d="M-186.035 69.0332H1727.04" stroke="#CDCDCD" stroke-width="1.25"/>
<path d="M-186.035 617.119H1727.04" stroke="#CDCDCD" stroke-width="1.25"/>
<path d="M-186.035 343.076H1727.04" stroke="#CDCDCD" stroke-width="1.25"/>
<path d="M-186.035 891.162H1727.04" stroke="#CDCDCD" stroke-width="1.25"/>
<path d="M-186.035 90.998H1727.04" stroke="#CDCDCD" stroke-width="1.25"/>
<path d="M-186.035 640.131H1727.04" stroke="#CDCDCD" stroke-width="1.25"/>
<path d="M-186.035 366.088H1727.04" stroke="#CDCDCD" stroke-width="1.25"/>
<path d="M-186.035 914.174H1727.04" stroke="#CDCDCD" stroke-width="1.25"/>
<path d="M-186.035 114.01H1727.04" stroke="#CDCDCD" stroke-width="1.25"/>
<path d="M-186.035 663.143H1727.04" stroke="#CDCDCD" stroke-width="1.25"/>
<path d="M-186.035 388.053H1727.04" stroke="#CDCDCD" stroke-width="1.25"/>
<path d="M-186.035 937.186H1727.04" stroke="#CDCDCD" stroke-width="1.25"/>
<path d="M-186.035 137.021H1727.04" stroke="#CDCDCD" stroke-width="1.25"/>
<path d="M-186.035 686.152H1727.04" stroke="#CDCDCD" stroke-width="1.25"/>
<path d="M-186.035 411.064H1727.04" stroke="#CDCDCD" stroke-width="1.25"/>
<path d="M-186.035 960.195H1727.04" stroke="#CDCDCD" stroke-width="1.25"/>
<path d="M-186.035 160.033H1727.04" stroke="#CDCDCD" stroke-width="1.25"/>
<path d="M-186.035 708.119H1727.04" stroke="#CDCDCD" stroke-width="1.25"/>
<path d="M-186.035 434.076H1727.04" stroke="#CDCDCD" stroke-width="1.25"/>
<path d="M-186.035 983.207H1727.04" stroke="#CDCDCD" stroke-width="1.25"/>
<path d="M-186.035 183.043H1727.04" stroke="#CDCDCD" stroke-width="1.25"/>
<path d="M-186.035 731.129H1727.04" stroke="#CDCDCD" stroke-width="1.25"/>
<path d="M-186.035 457.086H1727.04" stroke="#CDCDCD" stroke-width="1.25"/>
<path d="M-186.035 1006.22H1727.04" stroke="#CDCDCD" stroke-width="1.25"/>
<path d="M-186.035 206.055H1727.04" stroke="#CDCDCD" stroke-width="1.25"/>
<path d="M-186.035 754.141H1727.04" stroke="#CDCDCD" stroke-width="1.25"/>
<path d="M-186.035 480.098H1727.04" stroke="#CDCDCD" stroke-width="1.25"/>
<path d="M-186.035 229.066H1727.04" stroke="#CDCDCD" stroke-width="1.25"/>
<path d="M-186.035 777.152H1727.04" stroke="#CDCDCD" stroke-width="1.25"/>
<path d="M-186.035 503.109H1727.04" stroke="#CDCDCD" stroke-width="1.25"/>
<path d="M-186.035 251.031H1727.04" stroke="#CDCDCD" stroke-width="1.25"/>
<path d="M-186.035 800.164H1727.04" stroke="#CDCDCD" stroke-width="1.25"/>
<path d="M-186.035 526.121H1727.04" stroke="#CDCDCD" stroke-width="1.25"/>
<path d="M-186.035 274.043H1727.04" stroke="#CDCDCD" stroke-width="1.25"/>
<path d="M-186.035 823.174H1727.04" stroke="#CDCDCD" stroke-width="1.25"/>
<path d="M-186.035 548.086H1727.04" stroke="#CDCDCD" stroke-width="1.25"/>
<path d="M94.6089 0L94.6088 1024" stroke="#CDCDCD" stroke-width="1.25"/>
<path d="M643.18 0L643.18 1024" stroke="#CDCDCD" stroke-width="1.25"/>
<path d="M1191.75 0L1191.75 1024" stroke="#CDCDCD" stroke-width="1.25"/>
<path d="M368.895 0L368.894 1024" stroke="#CDCDCD" stroke-width="1.25"/>
<path d="M917.466 0L917.466 1024" stroke="#CDCDCD" stroke-width="1.25"/>
<path d="M71.7517 0L71.7517 1024" stroke="#CDCDCD" stroke-width="1.25"/>
<path d="M620.323 0L620.323 1024" stroke="#CDCDCD" stroke-width="1.25"/>
<path d="M1168.89 0L1168.89 1024" stroke="#CDCDCD" stroke-width="1.25"/>
<path d="M346.037 0L346.037 1024" stroke="#CDCDCD" stroke-width="1.25"/>
<path d="M894.609 0L894.609 1024" stroke="#CDCDCD" stroke-width="1.25"/>
<path d="M48.8945 0L48.8945 1024" stroke="#CDCDCD" stroke-width="1.25"/>
<path d="M597.466 0L597.466 1024" stroke="#CDCDCD" stroke-width="1.25"/>
<path d="M1146.04 0L1146.04 1024" stroke="#CDCDCD" stroke-width="1.25"/>
<path d="M323.18 0L323.18 1024" stroke="#CDCDCD" stroke-width="1.25"/>
<path d="M871.752 0L871.752 1024" stroke="#CDCDCD" stroke-width="1.25"/>
<path d="M1420.32 0L1420.32 1024" stroke="#CDCDCD" stroke-width="1.25"/>
<path d="M26.0374 0L26.0373 1024" stroke="#CDCDCD" stroke-width="1.25"/>
<path d="M574.609 0L574.609 1024" stroke="#CDCDCD" stroke-width="1.25"/>
<path d="M1123.18 0L1123.18 1024" stroke="#CDCDCD" stroke-width="1.25"/>
<path d="M300.323 0L300.323 1024" stroke="#CDCDCD" stroke-width="1.25"/>
<path d="M848.895 0L848.894 1024" stroke="#CDCDCD" stroke-width="1.25"/>
<path d="M1397.47 0L1397.47 1024" stroke="#CDCDCD" stroke-width="1.25"/>
<path d="M3.18042 0L3.18038 1024" stroke="#CDCDCD" stroke-width="1.25"/>
<path d="M551.752 0L551.752 1024" stroke="#CDCDCD" stroke-width="1.25"/>
<path d="M1100.32 0L1100.32 1024" stroke="#CDCDCD" stroke-width="1.25"/>
<path d="M277.466 0L277.466 1024" stroke="#CDCDCD" stroke-width="1.25"/>
<path d="M826.037 0L826.037 1024" stroke="#CDCDCD" stroke-width="1.25"/>
<path d="M1374.61 0L1374.61 1024" stroke="#CDCDCD" stroke-width="1.25"/>
<path d="M528.895 0L528.894 1024" stroke="#CDCDCD" stroke-width="1.25"/>
<path d="M1077.47 0L1077.47 1024" stroke="#CDCDCD" stroke-width="1.25"/>
<path d="M254.609 0L254.609 1024" stroke="#CDCDCD" stroke-width="1.25"/>
<path d="M803.18 0L803.18 1024" stroke="#CDCDCD" stroke-width="1.25"/>
<path d="M1351.75 0L1351.75 1024" stroke="#CDCDCD" stroke-width="1.25"/>
<path d="M506.037 0L506.037 1024" stroke="#CDCDCD" stroke-width="1.25"/>
<path d="M1054.61 0L1054.61 1024" stroke="#CDCDCD" stroke-width="1.25"/>
<path d="M231.752 0L231.752 1024" stroke="#CDCDCD" stroke-width="1.25"/>
<path d="M780.323 0L780.323 1024" stroke="#CDCDCD" stroke-width="1.25"/>
<path d="M1328.89 0L1328.89 1024" stroke="#CDCDCD" stroke-width="1.25"/>
<path d="M483.18 0L483.18 1024" stroke="#CDCDCD" stroke-width="1.25"/>
<path d="M1031.75 0L1031.75 1024" stroke="#CDCDCD" stroke-width="1.25"/>
<path d="M208.895 0L208.894 1024" stroke="#CDCDCD" stroke-width="1.25"/>
<path d="M757.466 0L757.466 1024" stroke="#CDCDCD" stroke-width="1.25"/>
<path d="M1306.04 0L1306.04 1024" stroke="#CDCDCD" stroke-width="1.25"/>
<path d="M460.323 0L460.323 1024" stroke="#CDCDCD" stroke-width="1.25"/>
<path d="M1008.89 0L1008.89 1024" stroke="#CDCDCD" stroke-width="1.25"/>
<path d="M186.037 0L186.037 1024" stroke="#CDCDCD" stroke-width="1.25"/>
<path d="M734.609 0L734.609 1024" stroke="#CDCDCD" stroke-width="1.25"/>
<path d="M1283.18 0L1283.18 1024" stroke="#CDCDCD" stroke-width="1.25"/>
<path d="M437.466 0L437.466 1024" stroke="#CDCDCD" stroke-width="1.25"/>
<path d="M986.037 0L986.037 1024" stroke="#CDCDCD" stroke-width="1.25"/>
<path d="M163.18 0L163.18 1024" stroke="#CDCDCD" stroke-width="1.25"/>
<path d="M711.752 0L711.752 1024" stroke="#CDCDCD" stroke-width="1.25"/>
<path d="M1260.32 0L1260.32 1024" stroke="#CDCDCD" stroke-width="1.25"/>
<path d="M414.609 0L414.609 1024" stroke="#CDCDCD" stroke-width="1.25"/>
<path d="M963.18 0L963.18 1024" stroke="#CDCDCD" stroke-width="1.25"/>
<path d="M140.323 0L140.323 1024" stroke="#CDCDCD" stroke-width="1.25"/>
<path d="M688.895 0L688.894 1024" stroke="#CDCDCD" stroke-width="1.25"/>
<path d="M1237.47 0L1237.47 1024" stroke="#CDCDCD" stroke-width="1.25"/>
<path d="M391.752 0L391.752 1024" stroke="#CDCDCD" stroke-width="1.25"/>
<path d="M940.323 0L940.323 1024" stroke="#CDCDCD" stroke-width="1.25"/>
<path d="M117.466 0L117.466 1024" stroke="#CDCDCD" stroke-width="1.25"/>
<path d="M666.037 0L666.037 1024" stroke="#CDCDCD" stroke-width="1.25"/>
<path d="M1214.61 0L1214.61 1024" stroke="#CDCDCD" stroke-width="1.25"/>
</g>
</g>
<defs>
<clipPath id="clip0_976_6718">
<rect width="1441" height="1024" fill="white"/>
</clipPath>
</defs>
</svg>
