<svg width="54" height="54" viewBox="0 0 54 54" fill="none" xmlns="http://www.w3.org/2000/svg">
<path d="M37.0409 19.3632C37.7048 18.6994 37.7048 17.623 37.0409 16.9591C36.377 16.2952 35.3006 16.2952 34.6368 16.9591L37.0409 19.3632ZM16.9591 34.6368C16.2952 35.3006 16.2952 36.377 16.9591 37.0409C17.623 37.7048 18.6994 37.7048 19.3632 37.0409L16.9591 34.6368ZM34.6368 37.0409C35.3006 37.7048 36.377 37.7048 37.0409 37.0409C37.7048 36.377 37.7048 35.3006 37.0409 34.6368L34.6368 37.0409ZM19.3632 16.9591C18.6994 16.2952 17.623 16.2952 16.9591 16.9591C16.2952 17.623 16.2952 18.6994 16.9591 19.3632L19.3632 16.9591ZM50.3 27C50.3 39.8682 39.8682 50.3 27 50.3V53.7C41.746 53.7 53.7 41.746 53.7 27H50.3ZM27 50.3C14.1318 50.3 3.7 39.8682 3.7 27H0.3C0.3 41.746 12.254 53.7 27 53.7V50.3ZM3.7 27C3.7 14.1318 14.1318 3.7 27 3.7V0.3C12.254 0.3 0.3 12.254 0.3 27H3.7ZM27 3.7C39.8682 3.7 50.3 14.1318 50.3 27H53.7C53.7 12.254 41.746 0.3 27 0.3V3.7ZM34.6368 16.9591L25.7979 25.7979L28.2021 28.2021L37.0409 19.3632L34.6368 16.9591ZM25.7979 25.7979L16.9591 34.6368L19.3632 37.0409L28.2021 28.2021L25.7979 25.7979ZM37.0409 34.6368L28.2021 25.7979L25.7979 28.2021L34.6368 37.0409L37.0409 34.6368ZM28.2021 25.7979L19.3632 16.9591L16.9591 19.3632L25.7979 28.2021L28.2021 25.7979Z" fill="#AFAFAF"/>
</svg>
