<svg width="200" height="200" viewBox="0 0 200 200" fill="none" xmlns="http://www.w3.org/2000/svg">
<mask id="mask0_1374_21006" style="mask-type:alpha" maskUnits="userSpaceOnUse" x="0" y="0" width="201" height="201">
<rect width="200.001" height="200.001" rx="40.0001" fill="#D9D9D9"/>
</mask>
<g mask="url(#mask0_1374_21006)">
<rect x="-55.0334" width="309.484" height="199.999" rx="40.0001" fill="#272727"/>
<g opacity="0.19">
<path opacity="0.2" d="M-55.0335 5.12695L254.493 5.12695" stroke="#CDCDCD" stroke-width="0.641058"/>
<path opacity="0.2" d="M-55.0335 10.2539L254.493 10.2539" stroke="#CDCDCD" stroke-width="0.641058"/>
<path opacity="0.2" d="M-55.0335 15.3971L254.493 15.3971" stroke="#CDCDCD" stroke-width="0.641058"/>
<path opacity="0.2" d="M-55.0335 20.5078L254.493 20.5078" stroke="#CDCDCD" stroke-width="0.641058"/>
<path opacity="0.2" d="M-55.0335 25.6348L254.493 25.6348" stroke="#CDCDCD" stroke-width="0.641058"/>
<path opacity="0.2" d="M-55.0335 30.778L254.493 30.778" stroke="#CDCDCD" stroke-width="0.641058"/>
<path opacity="0.2" d="M-55.0335 35.905L254.493 35.905" stroke="#CDCDCD" stroke-width="0.641058"/>
<path opacity="0.2" d="M-55.0335 41.0156L254.493 41.0156" stroke="#CDCDCD" stroke-width="0.641058"/>
<path opacity="0.2" d="M-55.0335 46.1589L254.493 46.1589" stroke="#CDCDCD" stroke-width="0.641058"/>
<path opacity="0.2" d="M-55.0335 51.2858L254.493 51.2858" stroke="#CDCDCD" stroke-width="0.641058"/>
<path opacity="0.2" d="M-55.0335 56.4128L254.493 56.4128" stroke="#CDCDCD" stroke-width="0.641058"/>
<path opacity="0.2" d="M-55.0335 61.5397L254.493 61.5397" stroke="#CDCDCD" stroke-width="0.641058"/>
<path opacity="0.2" d="M-55.0335 133.333L254.493 133.333" stroke="#CDCDCD" stroke-width="0.641058"/>
<path opacity="0.2" d="M-55.0335 66.6667L254.493 66.6667" stroke="#CDCDCD" stroke-width="0.641058"/>
<path opacity="0.2" d="M-55.0335 138.46L254.493 138.46" stroke="#CDCDCD" stroke-width="0.641058"/>
<path opacity="0.2" d="M-55.0335 71.7936L254.493 71.7936" stroke="#CDCDCD" stroke-width="0.641058"/>
<path opacity="0.2" d="M-55.0335 143.587L254.493 143.587" stroke="#CDCDCD" stroke-width="0.641058"/>
<path opacity="0.2" d="M-55.0335 76.9206L254.493 76.9206" stroke="#CDCDCD" stroke-width="0.641058"/>
<path opacity="0.2" d="M-55.0335 148.714L254.493 148.714" stroke="#CDCDCD" stroke-width="0.641058"/>
<path opacity="0.2" d="M-55.0335 82.0475L254.493 82.0475" stroke="#CDCDCD" stroke-width="0.641058"/>
<path opacity="0.2" d="M-55.0335 153.841L254.493 153.841" stroke="#CDCDCD" stroke-width="0.641058"/>
<path opacity="0.2" d="M-55.0335 87.1745L254.493 87.1745" stroke="#CDCDCD" stroke-width="0.641058"/>
<path opacity="0.2" d="M-55.0335 158.984L254.493 158.984" stroke="#CDCDCD" stroke-width="0.641058"/>
<path opacity="0.2" d="M-55.0335 92.3014L254.493 92.3014" stroke="#CDCDCD" stroke-width="0.641058"/>
<path opacity="0.2" d="M-55.0335 164.095L254.493 164.095" stroke="#CDCDCD" stroke-width="0.641058"/>
<path opacity="0.2" d="M-55.0335 97.4284L254.493 97.4284" stroke="#CDCDCD" stroke-width="0.641058"/>
<path opacity="0.2" d="M-55.0335 169.222L254.493 169.222" stroke="#CDCDCD" stroke-width="0.641058"/>
<path opacity="0.2" d="M-55.0335 102.555L254.493 102.555" stroke="#CDCDCD" stroke-width="0.641058"/>
<path opacity="0.2" d="M-55.0335 174.365L254.493 174.365" stroke="#CDCDCD" stroke-width="0.641058"/>
<path opacity="0.2" d="M-55.0335 107.699L254.493 107.699" stroke="#CDCDCD" stroke-width="0.641058"/>
<path opacity="0.2" d="M-55.0335 179.492L254.493 179.492" stroke="#CDCDCD" stroke-width="0.641058"/>
<path opacity="0.2" d="M-55.0335 112.809L254.493 112.809" stroke="#CDCDCD" stroke-width="0.641058"/>
<path opacity="0.2" d="M-55.0335 184.619L254.493 184.619" stroke="#CDCDCD" stroke-width="0.641058"/>
<path opacity="0.2" d="M-55.0335 117.952L254.493 117.952" stroke="#CDCDCD" stroke-width="0.641058"/>
<path opacity="0.2" d="M-55.0335 189.746L254.493 189.746" stroke="#CDCDCD" stroke-width="0.641058"/>
<path opacity="0.2" d="M-55.0335 123.079L254.493 123.079" stroke="#CDCDCD" stroke-width="0.641058"/>
<path opacity="0.2" d="M-55.0335 194.873L254.493 194.873" stroke="#CDCDCD" stroke-width="0.641058"/>
<path opacity="0.2" d="M-55.0335 128.206L254.493 128.206" stroke="#CDCDCD" stroke-width="0.641058"/>
<path opacity="0.2" d="M-55.0335 200L254.493 200" stroke="#CDCDCD" stroke-width="0.641058"/>
<path opacity="0.2" d="M1.37515 0V199.999" stroke="#CDCDCD" stroke-width="0.641058"/>
<path opacity="0.2" d="M6.50618 0V199.999" stroke="#CDCDCD" stroke-width="0.641058"/>
<path opacity="0.2" d="M11.6331 0V199.999" stroke="#CDCDCD" stroke-width="0.641058"/>
<path opacity="0.2" d="M16.7601 0V199.999" stroke="#CDCDCD" stroke-width="0.641058"/>
<path opacity="0.2" d="M21.887 0V199.999" stroke="#CDCDCD" stroke-width="0.641058"/>
<path opacity="0.2" d="M27.0181 0V199.999" stroke="#CDCDCD" stroke-width="0.641058"/>
<path opacity="0.2" d="M32.145 0V199.999" stroke="#CDCDCD" stroke-width="0.641058"/>
<path opacity="0.2" d="M37.272 0V199.999" stroke="#CDCDCD" stroke-width="0.641058"/>
<path opacity="0.2" d="M42.403 0V199.999" stroke="#CDCDCD" stroke-width="0.641058"/>
<path opacity="0.2" d="M47.5503 0V199.999" stroke="#CDCDCD" stroke-width="0.641058"/>
<path opacity="0.2" d="M52.6772 0V199.999" stroke="#CDCDCD" stroke-width="0.641058"/>
<path opacity="0.2" d="M57.7839 0V199.999" stroke="#CDCDCD" stroke-width="0.641058"/>
<path opacity="0.2" d="M62.9149 0V199.999" stroke="#CDCDCD" stroke-width="0.641058"/>
<path opacity="0.2" d="M68.0622 0V199.999" stroke="#CDCDCD" stroke-width="0.641058"/>
<path opacity="0.2" d="M73.1932 0V199.999" stroke="#CDCDCD" stroke-width="0.641058"/>
<path opacity="0.2" d="M78.3201 0V199.999" stroke="#CDCDCD" stroke-width="0.641058"/>
<path opacity="0.2" d="M83.4471 0V199.999" stroke="#CDCDCD" stroke-width="0.641058"/>
<path opacity="0.2" d="M88.5781 0V199.999" stroke="#CDCDCD" stroke-width="0.641058"/>
<path opacity="0.2" d="M93.7051 0V199.999" stroke="#CDCDCD" stroke-width="0.641058"/>
<path opacity="0.2" d="M98.832 0V199.999" stroke="#CDCDCD" stroke-width="0.641058"/>
<path opacity="0.2" d="M103.959 0V199.999" stroke="#CDCDCD" stroke-width="0.641058"/>
<path opacity="0.2" d="M109.09 0V199.999" stroke="#CDCDCD" stroke-width="0.641058"/>
<path opacity="0.2" d="M114.217 0V199.999" stroke="#CDCDCD" stroke-width="0.641058"/>
<path opacity="0.2" d="M119.344 0V199.999" stroke="#CDCDCD" stroke-width="0.641058"/>
<path opacity="0.2" d="M124.475 0V199.999" stroke="#CDCDCD" stroke-width="0.641058"/>
<path opacity="0.2" d="M129.602 0V199.999" stroke="#CDCDCD" stroke-width="0.641058"/>
<path opacity="0.2" d="M134.729 0V199.999" stroke="#CDCDCD" stroke-width="0.641058"/>
<path opacity="0.2" d="M139.856 0V199.999" stroke="#CDCDCD" stroke-width="0.641058"/>
<path opacity="0.2" d="M144.987 0V199.999" stroke="#CDCDCD" stroke-width="0.641058"/>
<path opacity="0.2" d="M150.114 0V199.999" stroke="#CDCDCD" stroke-width="0.641058"/>
<path opacity="0.2" d="M155.241 0V199.999" stroke="#CDCDCD" stroke-width="0.641058"/>
<path opacity="0.2" d="M160.372 0V199.999" stroke="#CDCDCD" stroke-width="0.641058"/>
<path opacity="0.2" d="M165.499 0V199.999" stroke="#CDCDCD" stroke-width="0.641058"/>
<path opacity="0.2" d="M170.626 0V199.999" stroke="#CDCDCD" stroke-width="0.641058"/>
<path opacity="0.2" d="M175.753 0V199.999" stroke="#CDCDCD" stroke-width="0.641058"/>
<path opacity="0.2" d="M180.884 0V199.999" stroke="#CDCDCD" stroke-width="0.641058"/>
<path opacity="0.2" d="M186.011 0V199.999" stroke="#CDCDCD" stroke-width="0.641058"/>
<path opacity="0.2" d="M191.142 0V199.999" stroke="#CDCDCD" stroke-width="0.641058"/>
<path opacity="0.2" d="M196.269 0V199.999" stroke="#CDCDCD" stroke-width="0.641058"/>
</g>
</g>
<path fill-rule="evenodd" clip-rule="evenodd" d="M103.64 35.6781C101.031 34.1258 98.9157 35.3286 98.9157 38.3646V59.0019L127.599 76.0669C130.209 77.6192 132.324 81.3389 132.324 84.3749V120.784L152.666 132.887C155.276 134.439 157.391 133.236 157.391 130.2V73.1536C157.391 70.1175 155.275 66.3979 152.666 64.8456L103.64 35.6781Z" fill="white"/>
<rect width="68.0411" height="68.0411" rx="5.49725" transform="matrix(0.859406 0.511293 0 1 41 62.2521)" fill="white"/>
<path fill-rule="evenodd" clip-rule="evenodd" d="M73.3822 49.4989C70.773 47.9466 68.6579 49.1494 68.6579 52.1855V73.0251L99.933 91.6319C102.542 93.1842 104.657 96.9038 104.657 99.9399V136.147L122.408 146.708C125.018 148.26 127.133 147.057 127.133 144.021V86.9744C127.133 83.9384 125.018 80.2188 122.408 78.6664L73.3822 49.4989Z" fill="white"/>
</svg>
